<?xml version="1.0" encoding="utf-8"?>
<!-- Generator: Adobe Illustrator 17.1.0, SVG Export Plug-In . SVG Version: 6.00 Build 0)  -->
<!DOCTYPE svg PUBLIC "-//W3C//DTD SVG 1.1//EN" "http://www.w3.org/Graphics/SVG/1.1/DTD/svg11.dtd">
<svg version="1.1" id="Layer_1" xmlns="http://www.w3.org/2000/svg" xmlns:xlink="http://www.w3.org/1999/xlink" x="0px" y="0px"
	 viewBox="0 0 19.7 14" enable-background="new 0 0 19.7 14" xml:space="preserve">
<g>
	<defs>
		<rect id="SVGID_1_" y="0" width="19.7" height="14"/>
	</defs>
	<clipPath id="SVGID_2_">
		<use xlink:href="#SVGID_1_"  overflow="visible"/>
	</clipPath>
	<path clip-path="url(#SVGID_2_)" fill="#E62F5E" d="M12.5,14c-0.7,0-1.5-0.1-2.2-0.3C8.3,13,6.7,11.6,5.9,9.7l0.9-0.4
		c0.7,1.6,2.1,2.9,3.8,3.4c3.2,1.1,6.7-0.7,7.8-4c1-3.2-0.7-6.7-4-7.8l0.3-1c3.8,1.2,5.8,5.3,4.6,9.1C18.3,12.1,15.5,14,12.5,14z"/>
	<path clip-path="url(#SVGID_2_)" fill="#E62F5E" d="M14,6.8c0,0.8-0.7,1.5-1.5,1.5c-0.8,0-1.5-0.7-1.5-1.5s0.7-1.5,1.5-1.5
		C13.3,5.3,14,6,14,6.8"/>
	<polygon clip-path="url(#SVGID_2_)" fill="#E62F5E" points="13.6,6.8 11.7,6.1 14.4,2.2 	"/>
	<path clip-path="url(#SVGID_2_)" fill="#E62F5E" d="M6.8,2.7H2.3c-0.3,0-0.5-0.2-0.5-0.5s0.2-0.5,0.5-0.5h4.5
		c0.3,0,0.5,0.2,0.5,0.5S7.1,2.7,6.8,2.7z"/>
	<path clip-path="url(#SVGID_2_)" fill="#E62F5E" d="M7,7.2H2.5C2.2,7.2,2,7,2,6.7s0.2-0.5,0.5-0.5H7c0.3,0,0.5,0.2,0.5,0.5
		S7.3,7.2,7,7.2z"/>
	<path clip-path="url(#SVGID_2_)" fill="#E62F5E" d="M8.5,4.6H5.2c-0.3,0-0.5-0.2-0.5-0.5s0.2-0.5,0.5-0.5h3.3C8.8,3.6,9,3.8,9,4.1
		S8.8,4.6,8.5,4.6z"/>
	<path clip-path="url(#SVGID_2_)" fill="#E62F5E" d="M3.1,5.3H0.5C0.2,5.3,0,5.1,0,4.8s0.2-0.5,0.5-0.5h2.6c0.3,0,0.5,0.2,0.5,0.5
		S3.3,5.3,3.1,5.3z"/>
	<path clip-path="url(#SVGID_2_)" fill="#E62F5E" d="M10.8,2.8H9.1c-0.3,0-0.5-0.2-0.5-0.5s0.2-0.5,0.5-0.5h1.7
		c0.3,0,0.5,0.2,0.5,0.5S11.1,2.8,10.8,2.8z"/>
</g>
</svg>
