<?xml version="1.0" encoding="utf-8"?>
<!-- Generator: Adobe Illustrator 17.1.0, SVG Export Plug-In . SVG Version: 6.00 Build 0)  -->
<!DOCTYPE svg PUBLIC "-//W3C//DTD SVG 1.1//EN" "http://www.w3.org/Graphics/SVG/1.1/DTD/svg11.dtd">
<svg version="1.1" id="Layer_1" xmlns="http://www.w3.org/2000/svg" xmlns:xlink="http://www.w3.org/1999/xlink" x="0px" y="0px"
	 viewBox="0 0 19.6 14.8" enable-background="new 0 0 19.6 14.8" xml:space="preserve">
<g>
	<defs>
		<rect id="SVGID_1_" y="0" width="19.6" height="14.8"/>
	</defs>
	<clipPath id="SVGID_2_">
		<use xlink:href="#SVGID_1_"  overflow="visible"/>
	</clipPath>
	<path clip-path="url(#SVGID_2_)" fill="#E62F5E" d="M14.4,0h-3.8C8.5,0,6.6,1.3,5.8,3.1h1.6c2.2,0,4,1.8,4,4c0,1.3-0.7,2.5-1.7,3.2
		c0.3,0,0.5,0.1,0.8,0.1h2.8l2.2,2.9v-3c2.3-0.6,4-2.6,4-5.1C19.6,2.3,17.3,0,14.4,0"/>
	<path clip-path="url(#SVGID_2_)" fill="#E62F5E" d="M3.1,14.8v-3.4C1.2,10.8,0,9.1,0,7.1c0-2.5,2-4.5,4.5-4.5h2.9
		c2.5,0,4.5,2,4.5,4.5c0,2.5-2,4.5-4.5,4.5H5.5L3.1,14.8z M4.5,3.6C2.6,3.6,1,5.2,1,7.1c0,1.6,1.1,3,2.7,3.4l0.4,0.1v1.3l1-1.3h2.4
		c1.9,0,3.5-1.6,3.5-3.5S9.4,3.6,7.4,3.6H4.5z"/>
</g>
</svg>
