<?xml version="1.0" encoding="utf-8"?>
<!-- Generator: Adobe Illustrator 17.1.0, SVG Export Plug-In . SVG Version: 6.00 Build 0)  -->
<!DOCTYPE svg PUBLIC "-//W3C//DTD SVG 1.1//EN" "http://www.w3.org/Graphics/SVG/1.1/DTD/svg11.dtd">
<svg version="1.1" id="Layer_1" xmlns="http://www.w3.org/2000/svg" xmlns:xlink="http://www.w3.org/1999/xlink" x="0px" y="0px"
	 viewBox="0 0 19.6 14.8" enable-background="new 0 0 19.6 14.8" xml:space="preserve">
<g>
	<defs>
		<rect id="SVGID_1_" y="0" width="19.6" height="14.8"/>
	</defs>
	<clipPath id="SVGID_2_">
		<use xlink:href="#SVGID_1_"  overflow="visible"/>
	</clipPath>
	<path clip-path="url(#SVGID_2_)" fill="#E62F5E" d="M14.4,0h-3.8C8.7,0,7,1,6.1,2.6H4.5C2,2.6,0,4.6,0,7.1c0,1.9,1.2,3.6,3.1,4.3
		v3.4l2.5-3.2h1.9c1.2,0,2.2-0.5,3-1.2c0,0,0.1,0,0.1,0h2.8l2.2,2.9v-3c2.3-0.5,4-2.6,4-5.1C19.6,2.3,17.3,0,14.4,0z M7.4,10.6H5
		l-1,1.3v-1.3l-0.4-0.1C2.1,10.1,1,8.7,1,7.1c0-1.9,1.6-3.5,3.5-3.5h2.9c1.9,0,3.5,1.6,3.5,3.5S9.4,10.6,7.4,10.6z"/>
</g>
</svg>
