<?xml version="1.0" encoding="utf-8"?>
<!-- Generator: Adobe Illustrator 17.1.0, SVG Export Plug-In . SVG Version: 6.00 Build 0)  -->
<!DOCTYPE svg PUBLIC "-//W3C//DTD SVG 1.1//EN" "http://www.w3.org/Graphics/SVG/1.1/DTD/svg11.dtd">
<svg version="1.1" id="Layer_1" xmlns="http://www.w3.org/2000/svg" xmlns:xlink="http://www.w3.org/1999/xlink" x="0px" y="0px"
	 viewBox="0 0 23.4 17.3" enable-background="new 0 0 23.4 17.3" xml:space="preserve">
<g>
	<defs>
		<rect id="SVGID_1_" y="0" width="23.4" height="17.3"/>
	</defs>
	<clipPath id="SVGID_2_">
		<use xlink:href="#SVGID_1_"  overflow="visible"/>
	</clipPath>
	<path clip-path="url(#SVGID_2_)" fill="#E62F5E" d="M16.6,17.3H6.8c-3.8,0-6.8-2.7-6.8-6.1c0-2.1,1.2-4,3.2-5.2c0-0.2,0-0.3,0-0.5
		C3.1,2.5,5.6,0,8.7,0c1.8,0,3.4,0.8,4.4,2.2c0.5-0.2,1.1-0.4,1.6-0.4c2,0,3.8,1.5,4.1,3.5c2.7,0.9,4.5,3.1,4.5,5.8
		C23.4,14.5,20.4,17.3,16.6,17.3z M8.7,1C6.2,1,4.1,3,4.1,5.6c0,0.2,0,0.4,0.1,0.7l0.1,0.4L3.9,6.7C2.1,7.6,1,9.3,1,11.2
		c0,2.8,2.6,5.1,5.8,5.1h9.8c3.2,0,5.8-2.3,5.8-5.1c0-2.3-1.6-4.2-4.1-4.9L18,6.2l0-0.4c-0.1-1.7-1.5-2.9-3.2-2.9
		c-0.5,0-1.1,0.1-1.6,0.4l-0.4,0.2l-0.3-0.4C11.7,1.8,10.3,1,8.7,1z"/>
	<path clip-path="url(#SVGID_2_)" fill="#E62F5E" d="M4.7,11.8l0.6-0.7c0.3,0.2,0.6,0.4,0.9,0.4c0.3,0,0.5-0.2,0.5-0.4
		c0-0.3-0.2-0.4-0.5-0.4c-0.2,0-0.4,0.1-0.6,0.2L5,10.6l0.1-1.8h2.4v0.8H5.9l0,0.5C6,10.1,6.2,10,6.4,10c0.6,0,1.2,0.4,1.2,1.1
		c0,0.8-0.6,1.3-1.5,1.3C5.5,12.4,5.1,12.2,4.7,11.8"/>
	<path clip-path="url(#SVGID_2_)" fill="#E62F5E" d="M8,10.6c0-1,0.6-1.8,1.6-1.8c1,0,1.6,0.8,1.6,1.8c0,1-0.6,1.8-1.6,1.8
		C8.6,12.4,8,11.6,8,10.6 M10.3,10.6c0-0.6-0.3-1-0.7-1C9.3,9.6,9,10,9,10.6c0,0.6,0.3,1,0.7,1C10.1,11.5,10.3,11.1,10.3,10.6"/>
	<path clip-path="url(#SVGID_2_)" fill="#E62F5E" d="M11.7,10.6c0-1,0.8-1.8,1.9-1.8c0.6,0,1.1,0.2,1.4,0.5l-0.6,0.7
		c-0.3-0.2-0.5-0.3-0.9-0.3c-0.5,0-0.9,0.4-0.9,1c0,0.6,0.4,1,1,1c0.2,0,0.4-0.1,0.6-0.1V11h-0.7v-0.7h1.6v1.6
		c-0.4,0.3-0.9,0.5-1.5,0.5C12.5,12.4,11.7,11.6,11.7,10.6"/>
	<path clip-path="url(#SVGID_2_)" fill="#E62F5E" d="M16.6,12v0.3h-1V8.6h1V10c0.2-0.2,0.4-0.4,0.8-0.4c0.7,0,1.2,0.5,1.2,1.4
		c0,0.9-0.6,1.4-1.2,1.4C17,12.4,16.8,12.2,16.6,12 M17.7,10.9c0-0.4-0.2-0.6-0.6-0.6c-0.3,0-0.6,0.3-0.6,0.6c0,0.4,0.2,0.6,0.6,0.6
		C17.5,11.6,17.7,11.3,17.7,10.9"/>
</g>
</svg>
