<?xml version="1.0" encoding="utf-8"?>
<!-- Generator: Adobe Illustrator 17.1.0, SVG Export Plug-In . SVG Version: 6.00 Build 0)  -->
<!DOCTYPE svg PUBLIC "-//W3C//DTD SVG 1.1//EN" "http://www.w3.org/Graphics/SVG/1.1/DTD/svg11.dtd">
<svg version="1.1" id="Layer_1" xmlns="http://www.w3.org/2000/svg" xmlns:xlink="http://www.w3.org/1999/xlink" x="0px" y="0px"
	 viewBox="0 0 18.1 21.2" enable-background="new 0 0 18.1 21.2" xml:space="preserve">
<polygon fill="#E62F5E" points="9.9,17 9.9,13.7 8.2,13.7 8.2,17 5.9,16.9 9,21.2 12.2,17 "/>
<g>
	<defs>
		<rect id="SVGID_1_" width="18.1" height="21.2"/>
	</defs>
	<clipPath id="SVGID_2_">
		<use xlink:href="#SVGID_1_"  overflow="visible"/>
	</clipPath>
	<path clip-path="url(#SVGID_2_)" fill="#E62F5E" d="M4.1,16.6C1.5,14.9,0,12.1,0,9c0-5,4.1-9,9-9c5,0,9,4.1,9,9
		c0,3-1.5,5.8-3.9,7.4l-0.6-0.8c2.2-1.5,3.5-4,3.5-6.6c0-4.4-3.6-8-8-8C4.6,1,1,4.6,1,9c0,2.7,1.4,5.2,3.6,6.7L4.1,16.6z"/>
	<path clip-path="url(#SVGID_2_)" fill="#E62F5E" d="M9,10.8c-0.9,0-1.7-0.8-1.7-1.7S8.1,7.4,9,7.4c0.9,0,1.7,0.8,1.7,1.7
		S10,10.8,9,10.8z M9,8.4c-0.4,0-0.7,0.3-0.7,0.7S8.7,9.8,9,9.8s0.7-0.3,0.7-0.7S9.4,8.4,9,8.4z"/>
</g>
</svg>
