<?xml version="1.0" encoding="utf-8"?>
<!-- Generator: Adobe Illustrator 17.1.0, SVG Export Plug-In . SVG Version: 6.00 Build 0)  -->
<!DOCTYPE svg PUBLIC "-//W3C//DTD SVG 1.1//EN" "http://www.w3.org/Graphics/SVG/1.1/DTD/svg11.dtd">
<svg version="1.1" id="Layer_1" xmlns="http://www.w3.org/2000/svg" xmlns:xlink="http://www.w3.org/1999/xlink" x="0px" y="0px"
	 viewBox="0 0 19.7 11.4" enable-background="new 0 0 19.7 11.4" xml:space="preserve">
<g>
	<defs>
		<rect id="SVGID_1_" y="0" width="19.7" height="11.4"/>
	</defs>
	<clipPath id="SVGID_2_">
		<use xlink:href="#SVGID_1_"  overflow="visible"/>
	</clipPath>
	<path clip-path="url(#SVGID_2_)" fill="#E62F5E" d="M9.9,2.6l3.2,5.2H6.7L9.9,2.6 M9.9,1.6C9.5,1.6,9.2,1.7,9,2L5.8,7.2
		c-0.2,0.3-0.2,0.7,0,1C6,8.6,6.3,8.8,6.7,8.8h6.4c0.4,0,0.7-0.2,0.9-0.5c0.2-0.3,0.2-0.7,0-1L10.7,2C10.5,1.7,10.2,1.6,9.9,1.6"/>
	<path clip-path="url(#SVGID_2_)" fill="#E62F5E" d="M9.9,6.2c-0.3,0-0.5-0.2-0.5-0.5V4.2c0-0.3,0.2-0.5,0.5-0.5s0.5,0.2,0.5,0.5
		v1.4C10.4,5.9,10.2,6.2,9.9,6.2z"/>
	<path clip-path="url(#SVGID_2_)" fill="#E62F5E" d="M10.4,6.8c0,0.3-0.2,0.5-0.5,0.5S9.4,7.1,9.4,6.8c0-0.3,0.2-0.5,0.5-0.5
		S10.4,6.6,10.4,6.8"/>
	<path clip-path="url(#SVGID_2_)" fill="#E62F5E" d="M17.4,9.8V1.8c0-1-0.8-1.8-1.8-1.8H4c-1,0-1.8,0.8-1.8,1.8v8.1H0v0.6
		c0,0.6,0.5,1.1,1.1,1.1h17.6c0.6,0,1.1-0.5,1.1-1.1V9.8H17.4z M3.3,1.8C3.3,1.3,3.6,1,4,1h11.7c0.4,0,0.8,0.3,0.8,0.8v8.1H3.3V1.8z
		"/>
</g>
</svg>
