<?xml version="1.0" encoding="utf-8"?>
<!-- Generator: Adobe Illustrator 17.1.0, SVG Export Plug-In . SVG Version: 6.00 Build 0)  -->
<!DOCTYPE svg PUBLIC "-//W3C//DTD SVG 1.1//EN" "http://www.w3.org/Graphics/SVG/1.1/DTD/svg11.dtd">
<svg version="1.1" id="Layer_1" xmlns="http://www.w3.org/2000/svg" xmlns:xlink="http://www.w3.org/1999/xlink" x="0px" y="0px"
	 viewBox="0 0 525.8 999.9" enable-background="new 0 0 525.8 999.9" xml:space="preserve">
<g>
	<defs>
		<rect id="SVGID_1_" width="525.8" height="999.9"/>
	</defs>
	<clipPath id="SVGID_2_">
		<use xlink:href="#SVGID_1_"  overflow="visible"/>
	</clipPath>
	<path clip-path="url(#SVGID_2_)" d="M349.8,999.9H149.7V550.2H0v-200h149.7c0-1.8,0-3.2,0-4.7c0-38-0.1-76,0.1-114
		c0.1-34.4,5.4-67.9,18.5-99.9c24.6-60,68.7-99,130.1-118.9c31.2-10.2,63.4-13.5,96.1-12.6c30.5,0.8,60.9,2.2,91.4,3.7
		c11.7,0.6,23.3,2,35.1,3.1v159c-1.6,0-3.2,0-4.8,0c-33.9,0.2-67.7,0-101.6,0.7c-9.4,0.2-18.9,2.1-27.9,4.7
		c-19.6,5.5-31,19.1-34.1,39c-1.8,11.6-2.7,23.3-2.8,35c-0.4,33.9-0.1,67.7-0.1,101.6c0,0.9,0.1,1.7,0.1,3.1h176.1
		c-7.6,66.7-15.2,132.9-22.8,199.7H349.8V999.9z"/>
</g>
</svg>
