<?xml version="1.0" encoding="utf-8"?>
<!-- Generator: Adobe Illustrator 17.1.0, SVG Export Plug-In . SVG Version: 6.00 Build 0)  -->
<!DOCTYPE svg PUBLIC "-//W3C//DTD SVG 1.1//EN" "http://www.w3.org/Graphics/SVG/1.1/DTD/svg11.dtd">
<svg version="1.1" id="Layer_1" xmlns="http://www.w3.org/2000/svg" xmlns:xlink="http://www.w3.org/1999/xlink" x="0px" y="0px"
	 viewBox="0 0 15.8 15.8" enable-background="new 0 0 15.8 15.8" xml:space="preserve">
<g>
	<defs>
		<rect id="SVGID_1_" y="0" width="15.8" height="15.8"/>
	</defs>
	<clipPath id="SVGID_2_">
		<use xlink:href="#SVGID_1_"  overflow="visible"/>
	</clipPath>
	<path clip-path="url(#SVGID_2_)" fill="#E62F5E" d="M9.4,12.8C5.9,12.8,3,9.9,3,6.4C3,2.9,5.9,0,9.4,0s6.4,2.9,6.4,6.4
		C15.8,9.9,12.9,12.8,9.4,12.8z M9.4,1C6.5,1,4,3.4,4,6.4c0,3,2.4,5.4,5.4,5.4s5.4-2.4,5.4-5.4C14.8,3.4,12.4,1,9.4,1z"/>
	
		<rect x="2" y="9.5" transform="matrix(0.7071 0.7071 -0.7071 0.7071 9.9413 1.5939)" clip-path="url(#SVGID_2_)" fill="#E62F5E" width="2" height="6.6"/>
	<path clip-path="url(#SVGID_2_)" fill="#E62F5E" d="M9.4,9.8C7.6,9.8,6,8.2,6,6.4h1c0,1.3,1.1,2.4,2.4,2.4c1.3,0,2.4-1.1,2.4-2.4h1
		C12.8,8.2,11.3,9.8,9.4,9.8z"/>
	<path clip-path="url(#SVGID_2_)" fill="#E62F5E" d="M8.4,4.4C8.4,4.8,8.1,5,7.8,5S7.1,4.8,7.1,4.4c0-0.3,0.3-0.6,0.6-0.6
		S8.4,4.1,8.4,4.4"/>
	<path clip-path="url(#SVGID_2_)" fill="#E62F5E" d="M11.7,4.4c0,0.3-0.3,0.6-0.6,0.6s-0.6-0.3-0.6-0.6c0-0.3,0.3-0.6,0.6-0.6
		S11.7,4.1,11.7,4.4"/>
</g>
</svg>
