<?xml version="1.0" encoding="utf-8"?>
<!-- Generator: Adobe Illustrator 17.1.0, SVG Export Plug-In . SVG Version: 6.00 Build 0)  -->
<!DOCTYPE svg PUBLIC "-//W3C//DTD SVG 1.1//EN" "http://www.w3.org/Graphics/SVG/1.1/DTD/svg11.dtd">
<svg version="1.1" id="Layer_1" xmlns="http://www.w3.org/2000/svg" xmlns:xlink="http://www.w3.org/1999/xlink" x="0px" y="0px"
	 viewBox="0 0 13.7 12.2" enable-background="new 0 0 13.7 12.2" xml:space="preserve">
<g>
	<defs>
		<rect id="SVGID_1_" y="0" width="13.7" height="12.2"/>
	</defs>
	<clipPath id="SVGID_2_">
		<use xlink:href="#SVGID_1_"  overflow="visible"/>
	</clipPath>
	<path clip-path="url(#SVGID_2_)" fill="#E62F5E" d="M3.8,6.6H0.5C0.2,6.6,0,6.4,0,6.1s0.2-0.5,0.5-0.5h3.3c0.3,0,0.5,0.2,0.5,0.5
		S4,6.6,3.8,6.6z"/>
	<path clip-path="url(#SVGID_2_)" fill="#E62F5E" d="M13.2,6.6H10c-0.3,0-0.5-0.2-0.5-0.5S9.7,5.6,10,5.6h3.3c0.3,0,0.5,0.2,0.5,0.5
		S13.5,6.6,13.2,6.6z"/>
	<path clip-path="url(#SVGID_2_)" fill="#E62F5E" d="M3.9,12.2c-0.1,0-0.2,0-0.2-0.1c-0.2-0.1-0.3-0.4-0.2-0.7L5,8.6
		c0.1-0.2,0.4-0.3,0.7-0.2C5.9,8.6,6,8.9,5.8,9.1L4.3,12C4.2,12.1,4.1,12.2,3.9,12.2z"/>
	<path clip-path="url(#SVGID_2_)" fill="#E62F5E" d="M8.3,3.9c-0.1,0-0.2,0-0.2-0.1C7.8,3.7,7.8,3.4,7.9,3.1l1.5-2.9
		C9.5,0,9.8-0.1,10.1,0.1c0.2,0.1,0.3,0.4,0.2,0.7L8.8,3.6C8.7,3.8,8.5,3.9,8.3,3.9z"/>
	<path clip-path="url(#SVGID_2_)" fill="#E62F5E" d="M9.9,12.2c-0.2,0-0.4-0.1-0.4-0.3L7.9,9.1c-0.1-0.2,0-0.5,0.2-0.7
		c0.2-0.1,0.5,0,0.7,0.2l1.5,2.9c0.1,0.2,0,0.5-0.2,0.7C10,12.2,9.9,12.2,9.9,12.2z"/>
	<path clip-path="url(#SVGID_2_)" fill="#E62F5E" d="M5.4,3.9C5.2,3.9,5.1,3.8,5,3.6L3.4,0.7c-0.1-0.2,0-0.5,0.2-0.7
		c0.2-0.1,0.5,0,0.7,0.2l1.5,2.9c0.1,0.2,0,0.5-0.2,0.7C5.6,3.9,5.5,3.9,5.4,3.9z"/>
</g>
</svg>
