<?xml version="1.0" encoding="utf-8"?>
<!-- Generator: Adobe Illustrator 17.1.0, SVG Export Plug-In . SVG Version: 6.00 Build 0)  -->
<!DOCTYPE svg PUBLIC "-//W3C//DTD SVG 1.1//EN" "http://www.w3.org/Graphics/SVG/1.1/DTD/svg11.dtd">
<svg version="1.1" id="Layer_1" xmlns="http://www.w3.org/2000/svg" xmlns:xlink="http://www.w3.org/1999/xlink" x="0px" y="0px"
	 viewBox="0 0 14.2 13.2" enable-background="new 0 0 14.2 13.2" xml:space="preserve">
<g>
	<defs>
		<rect id="SVGID_1_" y="0" width="14.2" height="13.2"/>
	</defs>
	<clipPath id="SVGID_2_">
		<use xlink:href="#SVGID_1_"  overflow="visible"/>
	</clipPath>
	<path clip-path="url(#SVGID_2_)" fill="#E62F5E" d="M7.6,0C4.1,0,1.3,2.7,1.1,6.2H0l2,2l2-2h-1C3.3,3.9,5.2,2,7.6,2
		c2.5,0,4.6,2.1,4.6,4.6s-2.1,4.6-4.6,4.6c-1.2,0-2.3-0.5-3.1-1.3c-0.4,0.5-0.8,1.1-1.3,1.5c1.2,1.1,2.7,1.7,4.4,1.7
		c3.6,0,6.6-3,6.6-6.6S11.3,0,7.6,0"/>
	<path clip-path="url(#SVGID_2_)" fill="#E62F5E" d="M6.1,6.8L5.1,7.7v0.4h2.2V7.7H5.8l0.6-0.5C7,6.7,7.3,6.4,7.3,6
		c0-0.6-0.4-0.9-1-0.9C5.7,5,5.4,5.3,5.1,5.7L5.5,6c0.2-0.3,0.4-0.5,0.7-0.5c0.3,0,0.5,0.2,0.5,0.5C6.7,6.3,6.5,6.5,6.1,6.8"/>
	<path clip-path="url(#SVGID_2_)" fill="#E62F5E" d="M9.1,5.1l-1.7,2l0.1,0.4h1.6v0.7h0.5V7.5H10V7H9.6v-2H9.1z M9.1,7h-1l1-1.2V7z"
		/>
</g>
</svg>
