<?xml version="1.0" encoding="utf-8"?>
<!-- Generator: Adobe Illustrator 17.1.0, SVG Export Plug-In . SVG Version: 6.00 Build 0)  -->
<!DOCTYPE svg PUBLIC "-//W3C//DTD SVG 1.1//EN" "http://www.w3.org/Graphics/SVG/1.1/DTD/svg11.dtd">
<svg version="1.1" id="Layer_1" xmlns="http://www.w3.org/2000/svg" xmlns:xlink="http://www.w3.org/1999/xlink" x="0px" y="0px"
	 viewBox="0 0 21 13.4" enable-background="new 0 0 21 13.4" xml:space="preserve">
<g>
	<defs>
		<rect id="SVGID_1_" y="0" width="21" height="13.4"/>
	</defs>
	<clipPath id="SVGID_2_">
		<use xlink:href="#SVGID_1_"  overflow="visible"/>
	</clipPath>
	<path clip-path="url(#SVGID_2_)" fill="#E62F5E" d="M21,13.4H0V0h21V13.4z M1,12.4h19V1H1V12.4z"/>
</g>
<path fill="#E62F5E" d="M17.1,4.7h-5.9c-0.3,0-0.5-0.2-0.5-0.5s0.2-0.5,0.5-0.5h5.9c0.3,0,0.5,0.2,0.5,0.5S17.3,4.7,17.1,4.7z"/>
<path fill="#E62F5E" d="M17.1,6.9h-5.9c-0.3,0-0.5-0.2-0.5-0.5s0.2-0.5,0.5-0.5h5.9c0.3,0,0.5,0.2,0.5,0.5S17.3,6.9,17.1,6.9z"/>
<path fill="#E62F5E" d="M17.1,9.1h-5.9c-0.3,0-0.5-0.2-0.5-0.5s0.2-0.5,0.5-0.5h5.9c0.3,0,0.5,0.2,0.5,0.5S17.3,9.1,17.1,9.1z"/>
<g>
	<defs>
		<rect id="SVGID_3_" y="0" width="21" height="13.4"/>
	</defs>
	<clipPath id="SVGID_4_">
		<use xlink:href="#SVGID_3_"  overflow="visible"/>
	</clipPath>
	<path clip-path="url(#SVGID_4_)" fill="#E62F5E" d="M7.4,10.3H2.9V8.7c0-0.9,0.7-1.6,1.6-1.6h1.3c0.9,0,1.6,0.7,1.6,1.6V10.3z"/>
	<path clip-path="url(#SVGID_4_)" fill="#E62F5E" d="M6.9,5c0,1-0.8,1.8-1.8,1.8C4.1,6.8,3.3,6,3.3,5s0.8-1.8,1.8-1.8
		C6.1,3.2,6.9,4,6.9,5"/>
</g>
</svg>
