<?xml version="1.0" encoding="utf-8"?>
<!-- Generator: Adobe Illustrator 17.1.0, SVG Export Plug-In . SVG Version: 6.00 Build 0)  -->
<!DOCTYPE svg PUBLIC "-//W3C//DTD SVG 1.1//EN" "http://www.w3.org/Graphics/SVG/1.1/DTD/svg11.dtd">
<svg version="1.1" id="Layer_1" xmlns="http://www.w3.org/2000/svg" xmlns:xlink="http://www.w3.org/1999/xlink" x="0px" y="0px"
	 viewBox="0 0 15.9 17.8" enable-background="new 0 0 15.9 17.8" xml:space="preserve">
<g>
	<defs>
		<rect id="SVGID_1_" y="0" width="15.9" height="17.8"/>
	</defs>
	<clipPath id="SVGID_2_">
		<use xlink:href="#SVGID_1_"  overflow="visible"/>
	</clipPath>
	<path clip-path="url(#SVGID_2_)" fill="#E62F5E" d="M5.7,15.8L5.7,15.8c-1.9,0-3.2-0.4-3.3-0.4l-0.2-0.1l-0.1-0.2
		C2.1,15,0.1,10.7,2,6.4C4.7,0.3,13.2,0,14.9,0c0.2,0,0.3,0,0.3,0l0.4,0l0.1,0.4c0.1,0.4,1.7,10.1-4.5,13.9
		C9.6,15.3,7.8,15.8,5.7,15.8z M3,14.5c0.4,0.1,1.4,0.3,2.7,0.3c1.8,0,3.5-0.4,4.9-1.3c5-3.1,4.4-10.7,4.1-12.5
		C13,1,5.4,1.4,2.9,6.8C1.4,10.2,2.6,13.6,3,14.5z"/>
	
		<rect x="3.6" y="7.5" transform="matrix(0.7533 0.6577 -0.6577 0.7533 9.6997 0.5355)" clip-path="url(#SVGID_2_)" fill="#E62F5E" width="1" height="11.4"/>
</g>
</svg>
