<?xml version="1.0" encoding="utf-8"?>
<!-- Generator: Adobe Illustrator 17.1.0, SVG Export Plug-In . SVG Version: 6.00 Build 0)  -->
<!DOCTYPE svg PUBLIC "-//W3C//DTD SVG 1.1//EN" "http://www.w3.org/Graphics/SVG/1.1/DTD/svg11.dtd">
<svg version="1.1" id="Layer_1" xmlns="http://www.w3.org/2000/svg" xmlns:xlink="http://www.w3.org/1999/xlink" x="0px" y="0px"
	 viewBox="0 0 13.7 20.8" enable-background="new 0 0 13.7 20.8" xml:space="preserve">
<g>
	<defs>
		<rect id="SVGID_1_" y="0" width="13.7" height="20.8"/>
	</defs>
	<clipPath id="SVGID_2_">
		<use xlink:href="#SVGID_1_"  overflow="visible"/>
	</clipPath>
	<path clip-path="url(#SVGID_2_)" fill="#E62F5E" d="M9.4,14.6v6l-2.6-1.7v0.1l-2.6,1.7v-6.2c0.2,0.1,0.4,0.1,0.6,0.1
		c0.3,0,0.7-0.1,1-0.2c0.3-0.1,0.6-0.2,1-0.2c0.3,0,0.7,0.1,1,0.2c0.3,0.1,0.6,0.2,1,0.2C9,14.7,9.2,14.7,9.4,14.6"/>
	<path clip-path="url(#SVGID_2_)" fill="#E62F5E" d="M9,6.9C9,8.1,8.1,9,6.9,9c-1.2,0-2.2-1-2.2-2.2c0-1.2,1-2.2,2.2-2.2
		C8.1,4.7,9,5.7,9,6.9"/>
	<path clip-path="url(#SVGID_2_)" fill="#E62F5E" d="M13.3,6.9c0-0.3,0.1-0.7,0.2-1c0.1-0.3,0.2-0.6,0.2-1c0-0.9-0.6-1.8-1.5-2.1
		c-0.7-0.2-1.2-0.7-1.4-1.4C10.5,0.2,9-0.4,7.8,0.2c-0.3,0.1-0.6,0.2-1,0.2c-0.3,0-0.7-0.1-1-0.2S5.3,0,4.9,0C4,0,3.2,0.6,2.9,1.5
		C2.6,2.1,2.1,2.6,1.5,2.9C0.6,3.2,0,4,0,4.9c0,0.3,0.1,0.7,0.2,1c0.2,0.3,0.2,0.6,0.2,1c0,0.3-0.1,0.7-0.2,1C0.1,8.1,0,8.5,0,8.8
		c0,0.9,0.6,1.8,1.5,2.1c0.7,0.2,1.2,0.7,1.4,1.4c0.3,0.9,1.2,1.5,2.1,1.5c0.3,0,0.7-0.1,1-0.2c0.3-0.2,0.6-0.2,1-0.2
		c0.3,0,0.7,0.1,1,0.2c0.3,0.1,0.6,0.2,1,0.2c0.9,0,1.8-0.6,2.1-1.5c0.2-0.6,0.7-1.1,1.4-1.4c0.9-0.3,1.5-1.2,1.5-2.1
		c0-0.3-0.1-0.7-0.2-1C13.4,7.5,13.3,7.2,13.3,6.9 M6.9,11c-2.3,0-4.2-1.9-4.2-4.2c0-2.3,1.9-4.2,4.2-4.2S11,4.6,11,6.9
		C11,9.2,9.2,11,6.9,11"/>
</g>
</svg>
