<?xml version="1.0" encoding="utf-8"?>
<!-- Generator: Adobe Illustrator 17.1.0, SVG Export Plug-In . SVG Version: 6.00 Build 0)  -->
<!DOCTYPE svg PUBLIC "-//W3C//DTD SVG 1.1//EN" "http://www.w3.org/Graphics/SVG/1.1/DTD/svg11.dtd">
<svg version="1.1" id="Layer_1" xmlns="http://www.w3.org/2000/svg" xmlns:xlink="http://www.w3.org/1999/xlink" x="0px" y="0px"
	 viewBox="0 0 15.4 12.2" enable-background="new 0 0 15.4 12.2" xml:space="preserve">
<g>
	<defs>
		<rect id="SVGID_1_" y="0" width="15.4" height="12.2"/>
	</defs>
	<clipPath id="SVGID_2_">
		<use xlink:href="#SVGID_1_"  overflow="visible"/>
	</clipPath>
	<path clip-path="url(#SVGID_2_)" fill="#E62F5E" d="M12.5,7c0.8-0.4,1.4-1.2,1.4-2.1c0-1.3-1-2.3-2.3-2.3s-2.3,1-2.3,2.3
		c0,0.9,0.6,1.7,1.4,2.1C10,7.1,9.5,7.4,9,7.8C8.4,6.7,7.3,5.9,6,5.6c1-0.5,1.7-1.5,1.7-2.7C7.8,1.3,6.5,0,4.9,0
		C3.2,0,1.9,1.3,1.9,2.9c0,1.2,0.7,2.2,1.7,2.7C1.6,6.1,0,8,0,10.3v1.9h7.8h1.9h5.7v-1.5C15.4,8.9,14.2,7.4,12.5,7"/>
</g>
</svg>
