<?xml version="1.0" encoding="utf-8"?>
<!-- Generator: Adobe Illustrator 17.1.0, SVG Export Plug-In . SVG Version: 6.00 Build 0)  -->
<!DOCTYPE svg PUBLIC "-//W3C//DTD SVG 1.1//EN" "http://www.w3.org/Graphics/SVG/1.1/DTD/svg11.dtd">
<svg version="1.1" id="Layer_1" xmlns="http://www.w3.org/2000/svg" xmlns:xlink="http://www.w3.org/1999/xlink" x="0px" y="0px"
	 viewBox="0 0 18.4 19.4" enable-background="new 0 0 18.4 19.4" xml:space="preserve">
<g>
	<defs>
		<rect id="SVGID_1_" y="0" width="18.4" height="19.4"/>
	</defs>
	<clipPath id="SVGID_2_">
		<use xlink:href="#SVGID_1_"  overflow="visible"/>
	</clipPath>
	<path clip-path="url(#SVGID_2_)" fill="#E62F5E" d="M15.7,17H2.8C1.2,17,0,15.8,0,14.3v-3.6c0-1.5,1.2-2.8,2.8-2.8h12.9
		c1.5,0,2.8,1.2,2.8,2.8v3.6C18.4,15.8,17.2,17,15.7,17z M2.8,8.9c-1,0-1.8,0.8-1.8,1.8v3.6c0,1,0.8,1.8,1.8,1.8h12.9
		c1,0,1.8-0.8,1.8-1.8v-3.6c0-1-0.8-1.8-1.8-1.8H2.8z"/>
	<path clip-path="url(#SVGID_2_)" fill="#E62F5E" d="M16.6,19.4H2.1V16h14.5V19.4z M3.1,18.4h12.5V17H3.1V18.4z"/>
	<path clip-path="url(#SVGID_2_)" fill="#E62F5E" d="M13.6,8.9H3.1V0h10.4V8.9z M4.1,7.9h8.4V1H4.1V7.9z"/>
</g>
</svg>
