<?xml version="1.0" encoding="utf-8"?>
<!-- Generator: Adobe Illustrator 17.1.0, SVG Export Plug-In . SVG Version: 6.00 Build 0)  -->
<!DOCTYPE svg PUBLIC "-//W3C//DTD SVG 1.1//EN" "http://www.w3.org/Graphics/SVG/1.1/DTD/svg11.dtd">
<svg version="1.1" id="Layer_1" xmlns="http://www.w3.org/2000/svg" xmlns:xlink="http://www.w3.org/1999/xlink" x="0px" y="0px"
	 viewBox="0 0 22.3 21.4" enable-background="new 0 0 22.3 21.4" xml:space="preserve">
<g>
	<defs>
		<rect id="SVGID_1_" y="0" width="22.3" height="21.4"/>
	</defs>
	<clipPath id="SVGID_2_">
		<use xlink:href="#SVGID_1_"  overflow="visible"/>
	</clipPath>
	<rect x="1.6" y="0.1" clip-path="url(#SVGID_2_)" fill="#E62F5E" width="1.5" height="21.3"/>
	<path clip-path="url(#SVGID_2_)" fill="#E62F5E" d="M3.3,9.6H1.2C0.5,9.6,0,9.1,0,8.4V7.2C0,6.6,0.5,6,1.2,6h2.1
		C4,6,4.6,6.6,4.6,7.2v1.2C4.6,9.1,4,9.6,3.3,9.6"/>
	<rect x="7.5" y="0" clip-path="url(#SVGID_2_)" fill="#E62F5E" width="1.5" height="21.3"/>
	<path clip-path="url(#SVGID_2_)" fill="#E62F5E" d="M9.3,13.2H7.2c-0.7,0-1.2-0.5-1.2-1.2v-1.2c0-0.7,0.5-1.2,1.2-1.2h2.1
		c0.7,0,1.2,0.5,1.2,1.2V12C10.5,12.7,10,13.2,9.3,13.2"/>
	<rect x="13.4" y="0.1" clip-path="url(#SVGID_2_)" fill="#E62F5E" width="1.5" height="21.3"/>
	<path clip-path="url(#SVGID_2_)" fill="#E62F5E" d="M15.2,11.8h-2.1c-0.7,0-1.2-0.5-1.2-1.2V9.4c0-0.7,0.5-1.2,1.2-1.2h2.1
		c0.7,0,1.2,0.5,1.2,1.2v1.2C16.4,11.2,15.9,11.8,15.2,11.8"/>
	<rect x="19.3" y="0.1" clip-path="url(#SVGID_2_)" fill="#E62F5E" width="1.5" height="21.3"/>
	<path clip-path="url(#SVGID_2_)" fill="#E62F5E" d="M21.1,9.6H19c-0.7,0-1.2-0.5-1.2-1.2V7.2C17.8,6.6,18.3,6,19,6h2.1
		c0.7,0,1.2,0.5,1.2,1.2v1.2C22.3,9.1,21.8,9.6,21.1,9.6"/>
</g>
</svg>
