<?xml version="1.0" encoding="utf-8"?>
<!-- Generator: Adobe Illustrator 17.1.0, SVG Export Plug-In . SVG Version: 6.00 Build 0)  -->
<!DOCTYPE svg PUBLIC "-//W3C//DTD SVG 1.1//EN" "http://www.w3.org/Graphics/SVG/1.1/DTD/svg11.dtd">
<svg version="1.1" id="Layer_1" xmlns="http://www.w3.org/2000/svg" xmlns:xlink="http://www.w3.org/1999/xlink" x="0px" y="0px"
	 viewBox="0 0 12.9 12.9" enable-background="new 0 0 12.9 12.9" xml:space="preserve">
<g>
	<defs>
		<rect id="SVGID_1_" y="0" width="12.9" height="12.9"/>
	</defs>
	<clipPath id="SVGID_2_">
		<use xlink:href="#SVGID_1_"  overflow="visible"/>
	</clipPath>
	<path clip-path="url(#SVGID_2_)" fill="#E62F5E" d="M11.8,6.7C10.6,7.8,9,8.1,7.6,7.6l-4.9,4.9c-0.5,0.5-1.3,0.5-1.9,0L0.4,12
		c-0.5-0.5-0.5-1.4,0-1.9l4.9-4.9c-0.5-1.4-0.2-3,0.9-4.1C7.3,0,9-0.3,10.4,0.3L8.3,2.3C7.7,3,7.7,4,8.3,4.6c0.6,0.6,1.6,0.6,2.3,0
		l2.1-2.1C13.2,3.9,12.9,5.6,11.8,6.7"/>
</g>
</svg>
