<?xml version="1.0" encoding="utf-8"?>
<!-- Generator: Adobe Illustrator 17.1.0, SVG Export Plug-In . SVG Version: 6.00 Build 0)  -->
<!DOCTYPE svg PUBLIC "-//W3C//DTD SVG 1.1//EN" "http://www.w3.org/Graphics/SVG/1.1/DTD/svg11.dtd">
<svg version="1.1" id="Layer_1" xmlns="http://www.w3.org/2000/svg" xmlns:xlink="http://www.w3.org/1999/xlink" x="0px" y="0px"
	 viewBox="0 0 409.6 332.9" enable-background="new 0 0 409.6 332.9" xml:space="preserve">
<g>
	<defs>
		<rect id="SVGID_1_" width="409.6" height="332.9"/>
	</defs>
	<clipPath id="SVGID_2_">
		<use xlink:href="#SVGID_1_"  overflow="visible"/>
	</clipPath>
	<path clip-path="url(#SVGID_2_)" d="M409.6,39.4c-15.1,6.7-31.3,11.2-48.3,13.2c17.4-10.4,30.7-26.9,37-46.5
		c-16.2,9.6-34.2,16.6-53.4,20.4C329.6,10.2,307.8,0,283.6,0c-46.4,0-84,37.6-84,84c0,6.6,0.7,13,2.2,19.2
		C131.9,99.7,70,66.2,28.5,15.4c-7.2,12.4-11.4,26.8-11.4,42.3c0,29.2,14.8,54.9,37.4,69.9c-13.8-0.4-26.7-4.2-38.1-10.5
		c0,0.4,0,0.7,0,1.1c0,40.7,29,74.7,67.4,82.4c-7.1,1.9-14.5,2.9-22.1,2.9c-5.4,0-10.7-0.5-15.8-1.5c10.7,33.4,41.7,57.7,78.5,58.4
		c-28.8,22.5-65,36-104.4,36c-6.8,0-13.5-0.4-20-1.2c37.2,23.8,81.4,37.8,128.8,37.8c154.6,0,239.1-128,239.1-239.1
		c0-3.6-0.1-7.3-0.2-10.9C384.1,71.1,398.3,56.3,409.6,39.4"/>
</g>
</svg>
