<?xml version="1.0" encoding="utf-8"?>
<!-- Generator: Adobe Illustrator 17.1.0, SVG Export Plug-In . SVG Version: 6.00 Build 0)  -->
<!DOCTYPE svg PUBLIC "-//W3C//DTD SVG 1.1//EN" "http://www.w3.org/Graphics/SVG/1.1/DTD/svg11.dtd">
<svg version="1.1" id="Layer_1" xmlns="http://www.w3.org/2000/svg" xmlns:xlink="http://www.w3.org/1999/xlink" x="0px" y="0px"
	 viewBox="0 0 20 19.7" enable-background="new 0 0 20 19.7" xml:space="preserve">
<g>
	<defs>
		<rect id="SVGID_1_" y="0" width="20" height="19.7"/>
	</defs>
	<clipPath id="SVGID_2_">
		<use xlink:href="#SVGID_1_"  overflow="visible"/>
	</clipPath>
	<path clip-path="url(#SVGID_2_)" fill="#E62F5E" d="M10,0C6.1,0,2.6,1.6,0,4.1l1.7,1.7C3.8,3.7,6.8,2.4,10,2.4s6.2,1.3,8.3,3.4
		L20,4.1C17.4,1.6,13.9,0,10,0"/>
	<path clip-path="url(#SVGID_2_)" fill="#E62F5E" d="M10,3.8c-2.8,0-5.4,1.2-7.3,3l1.7,1.7C5.8,7.1,7.8,6.2,10,6.2
		c2.2,0,4.2,0.9,5.6,2.3l1.7-1.7C15.4,5,12.8,3.8,10,3.8"/>
	<path clip-path="url(#SVGID_2_)" fill="#E62F5E" d="M10,7.6c-1.8,0-3.4,0.7-4.6,1.9l1.7,1.7C7.8,10.5,8.8,10,10,10
		c1.1,0,2.2,0.5,2.9,1.2l1.7-1.7C13.4,8.3,11.8,7.6,10,7.6"/>
</g>
<rect x="12.9" y="14.8" fill="#E62F5E" width="5.8" height="4.9"/>
<g>
	<defs>
		<rect id="SVGID_3_" y="0" width="20" height="19.7"/>
	</defs>
	<clipPath id="SVGID_4_">
		<use xlink:href="#SVGID_3_"  overflow="visible"/>
	</clipPath>
	<path clip-path="url(#SVGID_4_)" fill="#E62F5E" d="M15.8,17.3c-1,0-1.8-0.8-1.8-1.8v-1.6c0-1,0.8-1.8,1.8-1.8s1.8,0.8,1.8,1.8v1.6
		C17.6,16.5,16.8,17.3,15.8,17.3z M15.8,13.1c-0.4,0-0.8,0.4-0.8,0.8v1.6c0,0.4,0.4,0.8,0.8,0.8s0.8-0.4,0.8-0.8v-1.6
		C16.6,13.4,16.2,13.1,15.8,13.1z"/>
</g>
</svg>
