<?xml version="1.0" encoding="utf-8"?>
<!-- Generator: Adobe Illustrator 17.1.0, SVG Export Plug-In . SVG Version: 6.00 Build 0)  -->
<!DOCTYPE svg PUBLIC "-//W3C//DTD SVG 1.1//EN" "http://www.w3.org/Graphics/SVG/1.1/DTD/svg11.dtd">
<svg version="1.1" id="Layer_1" xmlns="http://www.w3.org/2000/svg" xmlns:xlink="http://www.w3.org/1999/xlink" x="0px" y="0px"
	 viewBox="0 0 112.5 78.6" enable-background="new 0 0 112.5 78.6" xml:space="preserve">
<g>
	<defs>
		<rect id="SVGID_1_" y="0" width="112.5" height="78.6"/>
	</defs>
	<clipPath id="SVGID_2_">
		<use xlink:href="#SVGID_1_"  overflow="visible"/>
	</clipPath>
	<path clip-path="url(#SVGID_2_)" fill="#E5221C" d="M110.9,15.8C109.6,7,105.1,2.8,96.3,1.7c-6.6-0.8-13.2-1.1-19.8-1.3
		c-0.6,0-1.3,0.3-1.7-0.3H36.9c-0.5,0.7-1.2,0.3-1.7,0.3c-6.5,0.3-12.9,0.5-19.4,1.3c-8.1,1-12.7,5.4-14,13.4c-0.7,4.3-1,8.7-1.4,13
		c0,0.5,0.3,1.2-0.4,1.6v19.3c0.6,0.4,0.3,1,0.4,1.5c0.4,4.9,0.7,9.9,1.7,14.7c1.3,6.1,5.6,10.2,11.7,11.3c2.8,0.5,5.7,0.8,8.5,1
		c12.6,0.8,25.2,1.2,37.9,1c12.3-0.1,24.7-0.3,37-1.7c7.5-0.9,12.1-5.2,13.4-12.6c0.9-4.5,1.2-9.1,1.5-13.7
		C112.7,38.9,112.7,27.4,110.9,15.8 M45.2,56V22.5c9.7,5.6,19.3,11.1,29.1,16.7C64.5,44.9,55,50.4,45.2,56"/>
</g>
</svg>
