<?xml version="1.0" encoding="utf-8"?>
<!-- Generator: Adobe Illustrator 17.1.0, SVG Export Plug-In . SVG Version: 6.00 Build 0)  -->
<!DOCTYPE svg PUBLIC "-//W3C//DTD SVG 1.1//EN" "http://www.w3.org/Graphics/SVG/1.1/DTD/svg11.dtd">
<svg version="1.1" id="Layer_1" xmlns="http://www.w3.org/2000/svg" xmlns:xlink="http://www.w3.org/1999/xlink" x="0px" y="0px"
	 viewBox="0 0 64.4 17.4" enable-background="new 0 0 64.4 17.4" xml:space="preserve">
<g>
	<g>
		<path fill="#FFFFFF" d="M28.5,4.1c0.4,0,0.8,0,1.2,0.1c0.4,0.1,0.7,0.1,1,0.2l-0.4,1.3c-0.3-0.1-0.6-0.2-0.9-0.2
			c-0.3,0-0.6-0.1-0.8-0.1c-0.9,0-1.6,0.3-2.1,0.9C26,7,25.7,7.9,25.7,9.2c0,0.6,0.1,1.1,0.4,1.5c0.3,0.4,0.7,0.5,1.4,0.5
			c0.2,0,0.3,0,0.5,0c0.2,0,0.4-0.1,0.5-0.1l0.4-2.9h1.6l-0.5,4c-0.5,0.2-0.9,0.3-1.4,0.3c-0.5,0.1-0.9,0.1-1.3,0.1
			c-0.6,0-1.2-0.1-1.6-0.3s-0.8-0.4-1-0.7c-0.3-0.3-0.4-0.7-0.5-1.1s-0.2-0.9-0.2-1.3c0-0.3,0-0.7,0.1-1.1C24,7.7,24.1,7.3,24.2,7
			c0.1-0.4,0.3-0.7,0.5-1.1C25,5.5,25.3,5.2,25.6,5c0.3-0.3,0.8-0.5,1.2-0.6C27.3,4.2,27.9,4.1,28.5,4.1z"/>
	</g>
	<g>
		<path fill="#FFFFFF" d="M34.5,6.4c0.6,0,1.1,0.1,1.5,0.4c0.3,0.3,0.5,0.7,0.5,1.2c0,0.6-0.3,1.1-0.9,1.5s-1.5,0.6-2.8,0.7v0.1
			c0,0.1,0,0.3,0,0.4c0,0.1,0.1,0.2,0.2,0.3s0.2,0.2,0.3,0.2c0.1,0.1,0.3,0.1,0.5,0.1c0.3,0,0.6,0,0.9-0.1s0.6-0.2,0.9-0.3L36,12
			c-0.2,0.1-0.4,0.2-0.6,0.3c-0.2,0.1-0.4,0.1-0.7,0.2s-0.5,0.1-0.7,0.1c-0.2,0-0.4,0-0.6,0c-0.5,0-0.9-0.1-1.2-0.2
			c-0.3-0.1-0.6-0.3-0.7-0.5s-0.3-0.5-0.4-0.8c-0.1-0.3-0.1-0.6-0.1-0.9c0-0.4,0.1-0.8,0.2-1.3c0.1-0.4,0.3-0.8,0.6-1.2
			c0.3-0.4,0.6-0.7,1-0.9S33.8,6.4,34.5,6.4z M32.8,9.4c0.7,0,1.2-0.2,1.6-0.3c0.4-0.2,0.5-0.5,0.5-0.8c0-0.2-0.1-0.3-0.2-0.5
			s-0.3-0.2-0.5-0.2c-0.4,0-0.8,0.2-1,0.5C33,8.4,32.8,8.8,32.8,9.4z"/>
	</g>
	<g>
		<path fill="#FFFFFF" d="M40.1,6.4c0.6,0,1.1,0.1,1.5,0.4s0.5,0.7,0.5,1.2c0,0.6-0.3,1.1-0.9,1.5c-0.6,0.4-1.5,0.6-2.8,0.7v0.1
			c0,0.1,0,0.3,0,0.4s0.1,0.2,0.2,0.3s0.2,0.2,0.3,0.2c0.1,0.1,0.3,0.1,0.5,0.1c0.3,0,0.6,0,0.9-0.1s0.6-0.2,0.9-0.3l0.3,0.9
			c-0.2,0.1-0.4,0.2-0.6,0.3c-0.2,0.1-0.4,0.1-0.7,0.2c-0.2,0.1-0.5,0.1-0.7,0.1c-0.2,0-0.4,0-0.6,0c-0.5,0-0.9-0.1-1.2-0.2
			c-0.3-0.1-0.6-0.3-0.7-0.5s-0.3-0.5-0.4-0.8c-0.1-0.3-0.1-0.6-0.1-0.9c0-0.4,0.1-0.8,0.2-1.3C37,8.4,37.2,8,37.4,7.7
			C37.7,7.3,38,7,38.5,6.8S39.4,6.4,40.1,6.4z M38.4,9.4c0.7,0,1.2-0.2,1.6-0.3c0.4-0.2,0.5-0.5,0.5-0.8c0-0.2-0.1-0.3-0.2-0.5
			c-0.1-0.1-0.3-0.2-0.5-0.2c-0.4,0-0.8,0.2-1,0.5C38.6,8.4,38.4,8.8,38.4,9.4z"/>
	</g>
	<g>
		<path fill="#FFFFFF" d="M44.6,8.6C44.6,8.6,44.6,8.6,44.6,8.6c0.4-0.3,0.8-0.7,1.1-1c0.3-0.3,0.7-0.7,1-1h1.8
			c-0.4,0.4-0.8,0.8-1.2,1.2c-0.4,0.4-0.8,0.8-1.2,1.2l0.4,0.4l1.5,3h-1.7c-0.2-0.4-0.4-0.9-0.6-1.3c-0.2-0.4-0.4-0.9-0.6-1.3
			c-0.2,0.2-0.4,0.4-0.6,0.6c0,0.3-0.1,0.7-0.1,1s-0.1,0.7-0.1,1h-1.7c0.2-1.4,0.4-2.9,0.5-4.3s0.3-2.8,0.5-4.3h1.7l-0.3,2.4
			c0,0.2-0.1,0.4-0.1,0.6c0,0.2,0,0.4-0.1,0.5c0,0.2,0,0.4-0.1,0.5C44.6,8.2,44.6,8.4,44.6,8.6z"/>
	</g>
	<g>
		<path fill="#FFFFFF" d="M52.4,4.3c0.3,0,0.6,0,0.8,0.1c0.3,0.1,0.5,0.2,0.7,0.4c0.2,0.2,0.3,0.4,0.4,0.6c0.1,0.2,0.2,0.5,0.2,0.9
			c0,0.3,0,0.6-0.1,0.9c-0.1,0.3-0.2,0.6-0.4,0.9c-0.2,0.3-0.5,0.5-0.8,0.7C52.7,8.9,52.3,9,51.8,9h-1.9l-0.4,3.5H49l1-8.2H52.4z
			 M50.5,4.7L50,8.6h1.9c0.2,0,0.4,0,0.7-0.1c0.2-0.1,0.5-0.2,0.7-0.4c0.2-0.2,0.4-0.4,0.5-0.7c0.1-0.3,0.2-0.7,0.2-1.1
			c0-0.3,0-0.5-0.1-0.7c-0.1-0.2-0.2-0.4-0.3-0.5C53.3,5,53.1,4.9,53,4.8s-0.4-0.1-0.6-0.1H50.5z"/>
	</g>
	<g>
		<path fill="#FFFFFF" d="M57.2,6.6c0.3,0,0.5,0,0.8,0.1c0.3,0.1,0.5,0.1,0.8,0.3l0.1-0.3l0.3,0c0,0.1,0,0.2-0.1,0.5S59,7.7,59,8.1
			s-0.1,0.8-0.1,1.2c-0.1,0.4-0.1,0.8-0.2,1.2s-0.1,0.7-0.1,1c0,0.3-0.1,0.5-0.1,0.6l0.8,0l0,0.3c-0.2,0.1-0.3,0.1-0.5,0.1
			c-0.1,0-0.3,0-0.4,0c-0.2,0-0.3,0-0.4-0.1c-0.1-0.1-0.1-0.2-0.1-0.4c0,0,0,0,0-0.1c0,0,0-0.1,0-0.1c0,0,0-0.1,0-0.1s0-0.1,0-0.1
			l0,0c-0.4,0.3-0.7,0.5-1.1,0.7c-0.3,0.2-0.7,0.2-1,0.2c-0.5,0-0.8-0.2-1.1-0.5c-0.3-0.3-0.5-0.8-0.5-1.5c0-0.5,0.1-1,0.2-1.4
			c0.1-0.5,0.3-0.9,0.5-1.3c0.2-0.4,0.5-0.7,0.9-0.9S56.7,6.6,57.2,6.6z M57.2,7c-0.3,0-0.6,0.1-0.9,0.2s-0.5,0.4-0.7,0.7
			c-0.2,0.3-0.4,0.7-0.5,1.1c-0.1,0.4-0.2,0.9-0.2,1.4c0,0.6,0.1,1,0.4,1.3c0.2,0.3,0.5,0.4,0.9,0.4c0.3,0,0.7-0.1,1-0.3
			c0.3-0.2,0.7-0.4,1-0.7l0.5-3.8c-0.3-0.1-0.5-0.2-0.8-0.3C57.6,7,57.4,7,57.2,7z"/>
	</g>
	<g>
		<path fill="#FFFFFF" d="M61.5,3.9c0,0.1,0,0.2-0.1,0.5c0,0.3-0.1,0.6-0.1,0.9s-0.1,0.8-0.2,1.3S61,7.5,61,8
			c-0.1,0.5-0.1,1-0.2,1.4c-0.1,0.5-0.1,0.9-0.2,1.2s-0.1,0.7-0.1,0.9s0,0.4-0.1,0.5l0.8,0l0,0.3c-0.1,0.1-0.3,0.1-0.5,0.2
			c-0.2,0-0.3,0-0.4,0c-0.3,0-0.5-0.1-0.5-0.4c0,0,0,0,0-0.1c0,0,0-0.1,0-0.1l1-8H61.5z"/>
	</g>
	<g>
		<path fill="#FFFFFF" d="M63.9,3.9c0,0.1,0,0.2-0.1,0.5c0,0.3-0.1,0.6-0.1,0.9s-0.1,0.8-0.2,1.3S63.4,7.5,63.4,8
			c-0.1,0.5-0.1,1-0.2,1.4c-0.1,0.5-0.1,0.9-0.2,1.2s-0.1,0.7-0.1,0.9s0,0.4-0.1,0.5l0.8,0l0,0.3c-0.1,0.1-0.3,0.1-0.5,0.2
			c-0.2,0-0.3,0-0.4,0c-0.3,0-0.5-0.1-0.5-0.4c0,0,0,0,0-0.1c0,0,0-0.1,0-0.1l1-8H63.9z"/>
	</g>
</g>
<g>
	<path fill="#E62F5E" stroke="#E62F5E" stroke-width="0.3" stroke-miterlimit="10" d="M18.2,4.7h-3.8l0.4-3.1c0-0.9-0.6-1.6-1.3-1.6
		H7.9C7.2,0,6.6,0.7,6.6,1.6L6.1,4.7H2.2C1.5,4.7,1,5.2,1,5.9l-1,5.6c0,0.7,0.5,1.2,1.2,1.2H5l-0.4,3.1c0,0.9,0.6,1.6,1.4,1.6h5.6
		c0.8,0,1.3-0.7,1.3-1.6l0.4-3.1h3.4c0.6,0,1.7-0.5,1.7-1.2l1-5.6C19.4,5.2,18.9,4.7,18.2,4.7z M16.7,12.2h-3.8l-0.5,3.6
		c0,0.6-0.4,1.1-0.8,1.1H5.9c-0.5,0-0.9-0.5-0.9-1.1l0.5-3.6H1.2c-0.4,0-0.7-0.3-0.7-0.7l1-5.6c0-0.4,0.3-0.7,0.7-0.7h4.3l0.5-3.6
		c0-0.6,0.4-1.1,0.9-1.1h5.6c0.5,0,0.8,0.5,0.9,1.1l-0.5,3.6h4.3c0.4,0,0.7,0.3,0.7,0.7l-1,5.6C17.9,11.8,17.2,12.2,16.7,12.2z"/>
	<polygon fill="#E62F5E" stroke="#E62F5E" stroke-width="0.3" stroke-miterlimit="10" points="9.5,2.8 11.9,2.8 10.7,1.6 	"/>
	<polygon fill="#E62F5E" stroke="#E62F5E" stroke-width="0.3" stroke-miterlimit="10" points="15.9,9.7 17.2,8.5 16.2,7.3 	"/>
	<polygon fill="#E62F5E" stroke="#E62F5E" stroke-width="0.3" stroke-miterlimit="10" points="3.1,9.7 3.5,7.3 2.1,8.5 	"/>
	<polygon fill="#E62F5E" stroke="#E62F5E" stroke-width="0.3" stroke-miterlimit="10" points="8.9,15.7 10.1,14.5 7.7,14.5 	"/>
</g>
</svg>
